<svg version="1.1" xmlns="http://www.w3.org/2000/svg" viewBox="0 0 1311 468" width="1311" height="468" filter="invert(93%) hue-rotate(180deg)">
  <!-- svg-source:excalidraw -->
  
  <defs>
    <style class="style-fonts">
      @font-face {
        font-family: "Virgil";
        src: url("https://excalidraw.com/Virgil.woff2");
      }
      @font-face {
        font-family: "Cascadia";
        src: url("https://excalidraw.com/Cascadia.woff2");
      }
      @font-face {
        font-family: "Assistant";
        src: url("https://excalidraw.com/Assistant-Regular.woff2");
      }
    </style>
    
  </defs>
  <rect x="0" y="0" width="1311" height="468" fill="#ffffff"></rect><g stroke-linecap="round" transform="translate(393 339) rotate(0 90.5 59.5)"><path d="M29.75 0 C76.7 1.49, 123.96 -3.17, 151.25 0 M29.75 0 C60.59 0.19, 87.25 3.4, 151.25 0 M151.25 0 C173.22 -0.05, 180.48 8.75, 181 29.75 M151.25 0 C175.37 -4.23, 182.39 10.3, 181 29.75 M181 29.75 C184.47 48.31, 184.58 71.76, 181 89.25 M181 29.75 C181.74 54.51, 182.44 78.33, 181 89.25 M181 89.25 C181.54 110.05, 174.37 120.96, 151.25 119 M181 89.25 C179.31 112.59, 174.29 122.7, 151.25 119 M151.25 119 C102.95 116.37, 59.43 119.7, 29.75 119 M151.25 119 C123.48 119.54, 96.8 119.52, 29.75 119 M29.75 119 C10.12 118.34, -1.52 108.09, 0 89.25 M29.75 119 C7.13 122.78, -3.76 111.04, 0 89.25 M0 89.25 C2.09 77.15, -5.01 56.48, 0 29.75 M0 89.25 C1.99 67.53, 2.06 49.62, 0 29.75 M0 29.75 C1.47 10.54, 8.91 1.2, 29.75 0 M0 29.75 C2.18 10.39, 10.62 2.12, 29.75 0" stroke="#e03131" stroke-width="1" fill="none"></path></g><g transform="translate(415 388) rotate(0 72.16993713378906 12.5)"><text x="0" y="0" font-family="Virgil, Segoe UI Emoji" font-size="20px" fill="#e03131" text-anchor="start" style="white-space: pre;" direction="ltr" dominant-baseline="text-before-edge">Frontend Admin</text></g><g stroke-linecap="round" transform="translate(744 327) rotate(0 97.5 64.5)"><path d="M32 0 C80.81 3.91, 124.82 4.18, 163 0 M32 0 C64.25 -4.23, 94.85 -1.45, 163 0 M163 0 C182.37 3.96, 191.88 13.51, 195 32 M163 0 C188.45 3.39, 193.09 11.05, 195 32 M195 32 C194.09 49.19, 192.56 61.98, 195 97 M195 32 C197.23 56.49, 196.67 79.63, 195 97 M195 97 C193.2 116.13, 184.27 131.5, 163 129 M195 97 C199.29 122.13, 184.32 128.19, 163 129 M163 129 C120.67 126.3, 79.47 130.14, 32 129 M163 129 C124.11 130.83, 81.38 128.9, 32 129 M32 129 C12.94 126.41, -0.1 117.95, 0 97 M32 129 C6.68 128.78, 1.48 117.91, 0 97 M0 97 C0.71 79.77, -3.74 58.07, 0 32 M0 97 C1.27 72.12, -1.37 48.34, 0 32 M0 32 C-1.75 9.37, 13.02 -0.23, 32 0 M0 32 C3.04 13.24, 14.62 2.05, 32 0" stroke="#e03131" stroke-width="1" fill="none"></path></g><g transform="translate(772.4300689697266 379) rotate(0 69.06993103027344 12.5)"><text x="69.06993103027344" y="0" font-family="Virgil, Segoe UI Emoji" font-size="20px" fill="#e03131" text-anchor="middle" style="white-space: pre;" direction="ltr" dominant-baseline="text-before-edge">Frontend User</text></g><g stroke-linecap="round" transform="translate(344 23) rotate(0 119 53)"><path d="M26.5 0 C71.6 0.13, 122.55 1.2, 211.5 0 M26.5 0 C95.12 -2.11, 162.34 -2.28, 211.5 0 M211.5 0 C232.79 -0.45, 234.53 7.95, 238 26.5 M211.5 0 C227.69 -0.72, 240.41 7.43, 238 26.5 M238 26.5 C235.93 42.18, 239.18 54.83, 238 79.5 M238 26.5 C236.08 47.22, 238.96 67.16, 238 79.5 M238 79.5 C241.56 95.57, 228.59 102.15, 211.5 106 M238 79.5 C234.25 99.73, 226.22 110.35, 211.5 106 M211.5 106 C144.81 103.67, 77.16 106.73, 26.5 106 M211.5 106 C161.96 110.02, 109.49 110.46, 26.5 106 M26.5 106 C8.19 102.16, 0.97 95.41, 0 79.5 M26.5 106 C9.05 104.29, 0.6 94.12, 0 79.5 M0 79.5 C-0.36 57.39, 1.97 41.07, 0 26.5 M0 79.5 C-1.13 64.07, 0.26 44.46, 0 26.5 M0 26.5 C-0.04 6.69, 11.6 2.5, 26.5 0 M0 26.5 C-2.44 7.61, 6.34 1.42, 26.5 0" stroke="#2f9e44" stroke-width="1" fill="none"></path></g><g transform="translate(368.36009979248047 63.5) rotate(0 94.63990020751953 12.5)"><text x="94.63990020751953" y="0" font-family="Virgil, Segoe UI Emoji" font-size="20px" fill="#2f9e44" text-anchor="middle" style="white-space: pre;" direction="ltr" dominant-baseline="text-before-edge">Article Microservice</text></g><g stroke-linecap="round" transform="translate(729 30) rotate(0 134.5 50.5)"><path d="M25.25 0 C73 -4.34, 118.9 -5.37, 243.75 0 M25.25 0 C105.47 1.07, 187.15 3.23, 243.75 0 M243.75 0 C260.67 -3.87, 268.28 12.18, 269 25.25 M243.75 0 C256.23 2.08, 271.78 8.45, 269 25.25 M269 25.25 C269.44 42.23, 267.53 55.42, 269 75.75 M269 25.25 C268.73 45.59, 270.5 60.85, 269 75.75 M269 75.75 C271.89 95.06, 258.6 104.91, 243.75 101 M269 75.75 C273.07 96.26, 264.24 104.6, 243.75 101 M243.75 101 C172.21 98.65, 103.05 101.19, 25.25 101 M243.75 101 C167.72 102.18, 90.15 101.07, 25.25 101 M25.25 101 C5.63 104.34, -1.91 95.03, 0 75.75 M25.25 101 C6.98 100.84, 4.15 91.34, 0 75.75 M0 75.75 C-1.74 60.95, -2.81 44.98, 0 25.25 M0 75.75 C0.53 55.82, -1.39 39.57, 0 25.25 M0 25.25 C-2.04 7.12, 10.41 -0.97, 25.25 0 M0 25.25 C1.64 10.29, 5.97 2.18, 25.25 0" stroke="#2f9e44" stroke-width="1" fill="none"></path></g><g transform="translate(777.6200942993164 68) rotate(0 85.8799057006836 12.5)"><text x="85.8799057006836" y="0" font-family="Virgil, Segoe UI Emoji" font-size="20px" fill="#2f9e44" text-anchor="middle" style="white-space: pre;" direction="ltr" dominant-baseline="text-before-edge">Cart Microservice</text></g><g stroke-linecap="round" transform="translate(1114 21) rotate(0 93.5 65.5)"><path d="M117.5 16.5 C126.09 23.62, 142.3 33.32, 163.5 49.5 M117.5 16.5 C128.69 22.61, 138.95 29.58, 163.5 49.5 M163.5 49.5 C186.22 65.48, 189.93 68.98, 163.5 82.5 M163.5 49.5 C186.89 63.17, 190.28 63.47, 163.5 82.5 M163.5 82.5 C148.46 90.75, 141.13 100.57, 117.5 114.5 M163.5 82.5 C148.91 90.8, 132.41 102.79, 117.5 114.5 M117.5 114.5 C96.72 133.81, 93.8 129.86, 70.5 114.5 M117.5 114.5 C90.83 132.92, 98.37 127.07, 70.5 114.5 M70.5 114.5 C57.99 105.05, 40.84 90.69, 23.5 82.5 M70.5 114.5 C58.94 107.38, 49.3 99.88, 23.5 82.5 M23.5 82.5 C0.14 66.58, 3.69 64.02, 23.5 49.5 M23.5 82.5 C0.8 68.48, 4.01 67.75, 23.5 49.5 M23.5 49.5 C39.67 34.65, 55.91 22.13, 70.5 16.5 M23.5 49.5 C39.43 41.56, 51.76 28.66, 70.5 16.5 M70.5 16.5 C97.85 1.39, 91.63 -0.86, 117.5 16.5 M70.5 16.5 C92.28 1.43, 91.48 -0.05, 117.5 16.5" stroke="#1971c2" stroke-width="1" fill="none"></path></g><g transform="translate(1182.1900329589844 74.25) rotate(0 25.559967041015625 12.5)"><text x="25.559967041015625" y="0" font-family="Virgil, Segoe UI Emoji" font-size="20px" fill="#1971c2" text-anchor="middle" style="white-space: pre;" direction="ltr" dominant-baseline="text-before-edge">Redis</text></g><g stroke-linecap="round" transform="translate(10 10) rotate(0 124.5 65.5)"><path d="M156.25 16.5 C175.91 24.68, 193.49 40.29, 217.75 49.5 M156.25 16.5 C177.42 29.34, 196.71 38.88, 217.75 49.5 M217.75 49.5 C251.15 69.48, 250.52 69.49, 217.75 82.5 M217.75 49.5 C251.08 64.61, 247.02 63.29, 217.75 82.5 M217.75 82.5 C203.2 89.37, 195.15 99.72, 156.25 114.5 M217.75 82.5 C199.74 92.06, 180.25 102.04, 156.25 114.5 M156.25 114.5 C126.24 128.81, 124.95 127.56, 93.75 114.5 M156.25 114.5 C122.87 132, 122.47 132.77, 93.75 114.5 M93.75 114.5 C83.44 110.18, 63.42 100.38, 31.25 82.5 M93.75 114.5 C72 103.48, 50.44 93.39, 31.25 82.5 M31.25 82.5 C3.54 66.07, 2.05 65.04, 31.25 49.5 M31.25 82.5 C3.28 69.87, -1 68.15, 31.25 49.5 M31.25 49.5 C46.64 39.18, 58.84 39.31, 93.75 16.5 M31.25 49.5 C48.82 40.57, 68.56 28.46, 93.75 16.5 M93.75 16.5 C126.51 -0.55, 127.36 1.3, 156.25 16.5 M93.75 16.5 C127.36 0.35, 126.67 -1.35, 156.25 16.5" stroke="#1971c2" stroke-width="1" fill="none"></path></g><g transform="translate(96 64) rotate(0 41.299964904785156 12.5)"><text x="0" y="0" font-family="Virgil, Segoe UI Emoji" font-size="20px" fill="#1971c2" text-anchor="start" style="white-space: pre;" direction="ltr" dominant-baseline="text-before-edge">MongoDb</text></g><g stroke-linecap="round"><g transform="translate(343 77) rotate(0 -40.5 1)"><path d="M-2.77 -2.08 C-15.53 -1.09, -65.28 3.86, -78.77 4.71 M0.91 2.96 C-11.8 3.35, -66.59 1.99, -79.8 1.16" stroke="#1e1e1e" stroke-width="1" fill="none"></path></g><g transform="translate(343 77) rotate(0 -40.5 1)"><path d="M-54.19 -4.79 C-53.7 -10.4, -62.41 -4.1, -78.79 -2.04 M-52.63 -7.62 C-58.38 -4.2, -67.83 -1.83, -81.44 -0.19" stroke="#1e1e1e" stroke-width="1" fill="none"></path></g><g transform="translate(343 77) rotate(0 -40.5 1)"><path d="M-55.01 15.72 C-54.15 5.62, -62.68 7.44, -78.79 -2.04 M-53.45 12.88 C-58.61 10.65, -67.84 7.36, -81.44 -0.19" stroke="#1e1e1e" stroke-width="1" fill="none"></path></g></g><mask></mask><g stroke-linecap="round"><g transform="translate(1002 85.24828919472264) rotate(0 53.66852400630626 2.2230206390206035)"><path d="M-2.56 -2.09 C15.68 -1.43, 89.44 2.45, 108.09 3.73 M1.25 2.94 C19.3 4.05, 88.37 7.35, 106.26 6.97" stroke="#1e1e1e" stroke-width="1" fill="none"></path></g><g transform="translate(1002 85.24828919472264) rotate(0 53.66852400630626 2.2230206390206035)"><path d="M74.9 17.8 C84.05 17.61, 93.87 16.12, 107.9 4.28 M77.85 16.89 C86.25 12.4, 96.44 9.99, 106.28 8.69" stroke="#1e1e1e" stroke-width="1" fill="none"></path></g><g transform="translate(1002 85.24828919472264) rotate(0 53.66852400630626 2.2230206390206035)"><path d="M75.27 -2.72 C84.3 2.27, 94.02 5.96, 107.9 4.28 M78.22 -3.63 C86.85 -1.54, 96.91 2.62, 106.28 8.69" stroke="#1e1e1e" stroke-width="1" fill="none"></path></g></g><mask></mask><g stroke-linecap="round"><g transform="translate(475 337) rotate(0 -10 -99)"><path d="M-1.75 0.47 C-5.28 -32.77, -15.93 -167.88, -19.3 -200.67 M2.49 -1.74 C-1.51 -34.63, -18.04 -165.31, -21.15 -198.49" stroke="#1e1e1e" stroke-width="1" fill="none"></path></g><g transform="translate(475 337) rotate(0 -10 -99)"><path d="M-7.13 -170.61 C-16.28 -184.4, -14.83 -187.66, -17.63 -201.96 M-9.35 -170.25 C-10.69 -178.95, -15.66 -187.41, -20 -197.83" stroke="#1e1e1e" stroke-width="1" fill="none"></path></g><g transform="translate(475 337) rotate(0 -10 -99)"><path d="M-27.52 -168.32 C-29.18 -182.69, -20.27 -186.79, -17.63 -201.96 M-29.74 -167.96 C-24.63 -177.45, -23.13 -186.65, -20 -197.83" stroke="#1e1e1e" stroke-width="1" fill="none"></path></g></g><mask></mask><g stroke-linecap="round"><g transform="translate(831.6435485297875 326) rotate(0 -167.3628609590968 -97.5)"><path d="M-2.4 0.57 C-58.47 -31.23, -280.15 -160.82, -335.27 -193.35 M1.49 -1.58 C-55.1 -33.97, -281.87 -165.85, -337.8 -197.47" stroke="#1e1e1e" stroke-width="1" fill="none"></path></g><g transform="translate(831.6435485297875 326) rotate(0 -167.3628609590968 -97.5)"><path d="M-307.42 -193.1 C-315.86 -192.29, -327.73 -193.25, -339.68 -197.47 M-308 -193.01 C-314.91 -194.59, -320.44 -192.77, -335.81 -197.93" stroke="#1e1e1e" stroke-width="1" fill="none"></path></g><g transform="translate(831.6435485297875 326) rotate(0 -167.3628609590968 -97.5)"><path d="M-317.65 -175.3 C-322.28 -180.38, -330.67 -187.4, -339.68 -197.47 M-318.23 -175.22 C-322.73 -180.47, -326.11 -182.39, -335.81 -197.93" stroke="#1e1e1e" stroke-width="1" fill="none"></path></g></g><mask></mask><g stroke-linecap="round"><g transform="translate(849.7489978141487 324) rotate(0 0.7485225110283409 -94.5)"><path d="M-2.66 0.21 C-2.02 -31.41, 1.18 -156.97, 1.74 -188.38 M1.09 -2.15 C1.57 -34.78, 0.07 -162.62, -0.37 -193.05" stroke="#1e1e1e" stroke-width="1" fill="none"></path></g><g transform="translate(849.7489978141487 324) rotate(0 0.7485225110283409 -94.5)"><path d="M10.53 -164.65 C8.48 -172.65, 6.29 -181.51, 3.02 -193.18 M10.51 -163.13 C6.52 -174.52, 0.1 -189.26, -2.19 -193.9" stroke="#1e1e1e" stroke-width="1" fill="none"></path></g><g transform="translate(849.7489978141487 324) rotate(0 0.7485225110283409 -94.5)"><path d="M-9.99 -164.39 C-7.43 -172.06, -5.02 -180.98, 3.02 -193.18 M-10.01 -162.87 C-5.79 -174.07, -4.01 -188.91, -2.19 -193.9" stroke="#1e1e1e" stroke-width="1" fill="none"></path></g></g><mask></mask></svg>